<svg width="48" height="48" viewBox="0 0 48 48" fill="none" xmlns="http://www.w3.org/2000/svg">
<path d="M36.278 21.0935C36.7505 20.1355 37 19.083 37 18C37 14.14 33.86 11 30 11C27.6995 11 25.5525 12.1405 24.252 14.0105C24.168 14.008 24.085 14 24.0005 14C20.1685 14 16.891 16.506 15.845 20.092C15.5565 20.0395 15.254 20 15.0005 20C11.9675 20 9.50049 22.4675 9.50049 25.5C9.50049 28.5325 11.9675 31 15.0005 31H33.0005C36.033 31 38.5005 28.5325 38.5005 25.5C38.5005 23.696 37.6235 22.097 36.278 21.0935ZM30 13C32.757 13 35 15.243 35 18C35 18.774 34.82 19.525 34.482 20.2085C34.0095 20.076 33.514 20 33.0005 20C32.7465 20 32.4445 20.0395 32.1555 20.092C31.3515 17.3365 29.2285 15.2245 26.5505 14.3915C27.4695 13.515 28.6985 13 30 13ZM33.0005 29H15.0005C13.071 29 11.5005 27.4295 11.5005 25.5C11.5005 23.5705 13.071 22 15.0005 22C15.139 22 15.362 22.034 15.597 22.081V23C15.597 23.552 16.045 24 16.597 24C17.149 24 17.597 23.552 17.597 23V21.3905C18.1335 18.264 20.815 16 24.0005 16C27.1865 16 29.8685 18.265 30.404 21.393V23C30.404 23.552 30.852 24 31.404 24C31.956 24 32.404 23.552 32.404 23V22.0815C32.6395 22.0345 32.8635 22 33.0005 22C34.93 22 36.5005 23.5705 36.5005 25.5C36.5005 27.4295 34.93 29 33.0005 29Z" fill="#5D5FEF"/>
<path d="M30 9C30.552 9 31 8.552 31 8V6C31 5.448 30.552 5 30 5C29.4475 5 29 5.448 29 6V8C29 8.552 29.4475 9 30 9Z" fill="#5D5FEF"/>
<path d="M42 17H40C39.4475 17 39 17.448 39 18C39 18.552 39.4475 19 40 19H42C42.552 19 43 18.552 43 18C43 17.448 42.552 17 42 17Z" fill="#5D5FEF"/>
<path d="M37.0715 11.9284C37.3275 11.9284 37.583 11.8309 37.7785 11.6354L39.1925 10.2214C39.583 9.83093 39.583 9.19793 39.1925 8.80743C38.802 8.41693 38.169 8.41693 37.7785 8.80743L36.3645 10.2214C35.974 10.6119 35.974 11.2449 36.3645 11.6354C36.5595 11.8309 36.8155 11.9284 37.0715 11.9284Z" fill="#5D5FEF"/>
<path d="M22.2214 11.6354C22.4169 11.8309 22.6724 11.9284 22.9284 11.9284C23.1844 11.9284 23.4399 11.8309 23.6354 11.6354C24.0259 11.2449 24.0259 10.6119 23.6354 10.2214L22.2214 8.80743C21.8309 8.41693 21.1979 8.41693 20.8074 8.80743C20.4169 9.19793 20.4169 9.83093 20.8074 10.2214L22.2214 11.6354Z" fill="#5D5FEF"/>
</svg>
