<svg width="21" height="28" viewBox="0 0 21 28" fill="none" xmlns="http://www.w3.org/2000/svg">
<g clip-path="url(#clip0_3236_13921)">
<path d="M13.0315 5.25C14.6917 5.25 16.0387 4.07422 16.0387 2.625C16.0387 1.17578 14.6917 0 13.0315 0C11.3713 0 10.0243 1.17578 10.0243 2.625C10.0243 4.07422 11.3713 5.25 13.0315 5.25ZM18.9519 13.4039L17.4921 12.7586L16.8844 11.1508C15.9635 8.71172 13.3949 7.00547 10.4817 7C8.22627 6.99453 6.97954 7.55234 4.63645 8.37812C3.28322 8.85391 2.17433 9.75625 1.52277 10.9047L1.10302 11.6484C0.614352 12.5125 1.00904 13.5625 1.99264 13.9945C2.96997 14.4266 4.16032 14.0766 4.65525 13.2125L5.075 12.4687C5.29427 12.0859 5.65764 11.7852 6.10872 11.6266L7.78772 11.0359L6.83545 14.3555C6.50967 15.493 6.86051 16.7016 7.76893 17.5711L11.5216 21.1477C11.9727 21.5797 12.2922 22.0992 12.4551 22.6625L13.6016 26.6711C13.871 27.6062 14.9611 28.1805 16.0324 27.9453C17.1037 27.7102 17.7615 26.7586 17.4921 25.8234L16.1013 20.9562C15.9384 20.393 15.6189 19.868 15.1678 19.4414L12.3173 16.7234L13.3949 12.9664L13.7394 13.8687C14.0715 14.7492 14.7857 15.4766 15.7254 15.8922L17.1852 16.5375C18.1625 16.9695 19.3528 16.6195 19.8478 15.7555C20.3302 14.8969 19.9355 13.8359 18.9519 13.4039ZM4.61139 21.0984C4.41091 21.5414 4.1102 21.9406 3.72177 22.2742L0.589292 25.0141C-0.193827 25.6977 -0.193827 26.8078 0.589292 27.4914C1.37241 28.175 2.63793 28.175 3.42105 27.4914L7.14243 24.243C7.52459 23.9094 7.82531 23.5102 8.03205 23.0672L8.87782 21.2187C5.41331 17.9211 6.45329 18.9328 5.90824 18.282L4.61139 21.0984Z" fill="#7CD202"/>
</g>
<defs>
<clipPath id="clip0_3236_13921">
<rect width="20.0478" height="28" fill="white"/>
</clipPath>
</defs>
</svg>
