<svg width="14" height="17" viewBox="0 0 14 17" fill="none" xmlns="http://www.w3.org/2000/svg">
<path d="M9.41271 12.1402L6.36364 8.74696V3.03494H7.45454V8.24313L10.1818 11.2843L9.41271 12.1402Z" fill="black"/>
<path d="M6.99999 0C6.06747 0.000157516 5.14446 0.223417 4.28561 0.656558C3.42676 1.0897 2.64955 1.72391 2 2.52164V0H0.999999V4.76906H4.99999V3.5768H2.54C3.47801 2.33404 4.75149 1.52224 6.13925 1.2824C7.52702 1.04257 8.94141 1.38983 10.1368 2.2639C11.3322 3.13796 12.233 4.4836 12.6828 6.06712C13.1327 7.65063 13.1031 9.37199 12.5993 10.9322C12.0955 12.4925 11.1492 13.793 9.92486 14.608C8.70049 15.4231 7.27536 15.701 5.89699 15.3937C4.51861 15.0863 3.27407 14.2131 2.37949 12.9256C1.48492 11.6381 0.996833 10.0177 0.999999 8.34586H0C0 9.99651 0.410542 11.6101 1.17971 12.9826C1.94888 14.355 3.04213 15.4247 4.32121 16.0564C5.60029 16.6881 7.00776 16.8534 8.36562 16.5314C9.72349 16.2093 10.9708 15.4145 11.9497 14.2473C12.9287 13.0801 13.5954 11.593 13.8655 9.97405C14.1356 8.35512 13.997 6.67704 13.4671 5.15204C12.9373 3.62703 12.0401 2.32359 10.889 1.40653C9.73784 0.489476 8.38446 0 6.99999 0Z" fill="black"/>
</svg>
