<svg width="16" height="16" viewBox="0 0 16 16" fill="none" xmlns="http://www.w3.org/2000/svg">
<path d="M4.77627 10.4594L4.77625 10.4594L4.78244 10.4629C5.54787 10.8912 6.45205 10.7612 7.27087 10.2684C7.27094 10.2684 7.27101 10.2683 7.27108 10.2683L7.999 9.83154L8.72982 10.2689L8.73022 10.2692C9.28057 10.5978 9.78166 10.7199 10.2133 10.7199C10.6635 10.7199 11.0162 10.5815 11.2385 10.4518L10.9866 10.0199L11.2375 10.4524C11.9755 10.0241 12.3333 9.19424 12.3333 8.27989V2.35989C12.3333 2.30036 12.3632 2.24765 12.4148 2.21446C12.4653 2.1819 12.5158 2.1805 12.5591 2.20181L12.5613 2.20289C13.5582 2.68759 14.1666 3.69223 14.1666 5.20655V10.7932C14.1666 12.6571 12.6571 14.1666 10.7933 14.1666H5.20659C3.34273 14.1666 1.83325 12.6571 1.83325 10.7932V5.20655C1.83325 3.69238 2.44149 2.68779 3.43824 2.20304C3.48776 2.1791 3.53915 2.18313 3.58671 2.21389C3.63591 2.24571 3.66659 2.29774 3.66659 2.35989V8.27989C3.66659 9.19681 4.02613 10.0256 4.77627 10.4594Z" fill="#363B9D" stroke="#363B9D"/>
<path d="M10.2365 8.71928C10.2257 8.72114 10.198 8.72358 10.1461 8.71434C10.0542 8.69796 9.92181 8.64986 9.75733 8.55117L9.75685 8.55089L8.87817 8.02501C8.61174 7.86358 8.29173 7.79825 8.00008 7.79825C7.70843 7.79825 7.38842 7.86358 7.12199 8.02501L6.24331 8.55089L6.24283 8.55117C6.08063 8.64849 5.94878 8.69542 5.85639 8.71143C5.80427 8.72046 5.77446 8.71833 5.76099 8.71616C5.75311 8.70669 5.73859 8.68566 5.72236 8.64473C5.69206 8.56834 5.66675 8.44732 5.66675 8.27992V1.99992C5.66675 1.90939 5.74289 1.83325 5.83341 1.83325H10.1667C10.2573 1.83325 10.3334 1.90939 10.3334 1.99992V8.27992C10.3334 8.44732 10.3081 8.56834 10.2778 8.64473C10.2595 8.69095 10.2433 8.7118 10.2365 8.71928Z" fill="#363B9D" stroke="#363B9D"/>
</svg>
