<svg width="42" height="42" viewBox="0 0 42 42" fill="none" xmlns="http://www.w3.org/2000/svg">
<g filter="url(#filter0_d_3236_12585)">
<rect x="7" y="7" width="26" height="22" rx="3" fill="#7CD202"/>
<rect x="9" y="9" width="22" height="12" rx="2" fill="#FBF5F5"/>
<rect x="9" y="24" width="4" height="3" rx="1" fill="#FBF5F5"/>
<path d="M9 28H13V32C13 32.5523 12.5523 33 12 33H10C9.44772 33 9 32.5523 9 32V28Z" fill="#7CD202"/>
<path d="M27 28H31V32C31 32.5523 30.5523 33 30 33H28C27.4477 33 27 32.5523 27 32V28Z" fill="#7CD202"/>
<rect x="27" y="24" width="4" height="3" rx="1" fill="#FBF5F5"/>
</g>
<defs>
<filter id="filter0_d_3236_12585" x="0" y="0" width="42" height="42" filterUnits="userSpaceOnUse" color-interpolation-filters="sRGB">
<feFlood flood-opacity="0" result="BackgroundImageFix"/>
<feColorMatrix in="SourceAlpha" type="matrix" values="0 0 0 0 0 0 0 0 0 0 0 0 0 0 0 0 0 0 127 0" result="hardAlpha"/>
<feOffset dx="1" dy="1"/>
<feGaussianBlur stdDeviation="4"/>
<feComposite in2="hardAlpha" operator="out"/>
<feColorMatrix type="matrix" values="0 0 0 0 0.215686 0 0 0 0 0.141176 0 0 0 0 0.564706 0 0 0 1 0"/>
<feBlend mode="normal" in2="BackgroundImageFix" result="effect1_dropShadow_3236_12585"/>
<feBlend mode="normal" in="SourceGraphic" in2="effect1_dropShadow_3236_12585" result="shape"/>
</filter>
</defs>
</svg>
