<svg width="16" height="16" viewBox="0 0 16 16" fill="none" xmlns="http://www.w3.org/2000/svg">
<g clip-path="url(#clip0_0_3091)">
<path d="M15.9924 8.1497C15.9924 7.49419 15.9379 7.01584 15.8201 6.51978H8.15936V9.47843H12.656C12.5654 10.2137 12.0759 11.321 10.9879 12.0651L10.9727 12.1641L13.3949 13.9976L13.5627 14.0139C15.1039 12.6232 15.9924 10.5769 15.9924 8.1497Z" fill="#4285F4"/>
<path d="M8.15936 15.945C10.3624 15.945 12.2118 15.2363 13.5627 14.0139L10.9879 12.065C10.2989 12.5345 9.37417 12.8623 8.15936 12.8623C6.00167 12.8623 4.17036 11.4716 3.51755 9.54932L3.42186 9.55726L0.903238 11.4618L0.8703 11.5513C2.21205 14.1556 4.96811 15.945 8.15936 15.945Z" fill="#34A853"/>
<path d="M3.51756 9.5493C3.34531 9.05324 3.24562 8.5217 3.24562 7.97251C3.24562 7.42326 3.34531 6.89178 3.5085 6.39571L3.50394 6.29007L0.95375 4.35492L0.870312 4.3937C0.317313 5.47443 0 6.68805 0 7.97251C0 9.25697 0.317313 10.4705 0.870312 11.5513L3.51756 9.5493Z" fill="#FBBC05"/>
<path d="M8.15936 3.08269C9.69149 3.08269 10.725 3.72934 11.3143 4.26974L13.617 2.07285C12.2028 0.788397 10.3624 0 8.15936 0C4.96811 0 2.21205 1.78937 0.8703 4.39371L3.50849 6.39573C4.17036 4.47347 6.00167 3.08269 8.15936 3.08269Z" fill="#EB4335"/>
</g>
<defs>
<clipPath id="clip0_0_3091">
<rect width="16" height="16" fill="white"/>
</clipPath>
</defs>
</svg>
