<svg width="32" height="32" viewBox="0 0 32 32" fill="none" xmlns="http://www.w3.org/2000/svg">
<path d="M21.9999 13.3333C21.8309 13.3333 21.6293 13.3596 21.4369 13.3946C20.7393 11.004 18.5543 9.33331 15.9999 9.33331C13.4453 9.33331 11.2603 11.004 10.5626 13.3946C10.3706 13.3596 10.1693 13.3333 9.99992 13.3333C7.97825 13.3333 6.33325 14.9783 6.33325 17C6.33325 19.0216 7.97825 20.6666 9.99992 20.6666H21.9999C24.0216 20.6666 25.6666 19.0216 25.6666 17C25.6666 14.9783 24.0216 13.3333 21.9999 13.3333ZM21.9999 19.3333H9.99992C8.71359 19.3333 7.66659 18.2863 7.66659 17C7.66659 15.7136 8.71359 14.6666 9.99992 14.6666C10.0923 14.6666 10.2409 14.6893 10.3979 14.7206V15.3333C10.3979 15.7013 10.6966 16 11.0646 16C11.4326 16 11.7313 15.7013 11.7313 15.3333V14.258C12.0896 12.1746 13.8773 10.6666 15.9999 10.6666C18.1236 10.6666 19.9116 12.1763 20.2693 14.2613V15.3333C20.2693 15.7013 20.5679 16 20.9359 16C21.3039 16 21.6026 15.7013 21.6026 15.3333V14.721C21.7593 14.6896 21.9086 14.6666 21.9999 14.6666C23.2863 14.6666 24.3333 15.7136 24.3333 17C24.3333 18.2863 23.2863 19.3333 21.9999 19.3333Z" fill="#5D5FEF"/>
<path d="M12.9999 22.6666C13.3681 22.6666 13.6666 22.3682 13.6666 22C13.6666 21.6318 13.3681 21.3333 12.9999 21.3333C12.6317 21.3333 12.3333 21.6318 12.3333 22C12.3333 22.3682 12.6317 22.6666 12.9999 22.6666Z" fill="#5D5FEF"/>
<path d="M18.9999 22.6666C19.3681 22.6666 19.6666 22.3682 19.6666 22C19.6666 21.6318 19.3681 21.3333 18.9999 21.3333C18.6317 21.3333 18.3333 21.6318 18.3333 22C18.3333 22.3682 18.6317 22.6666 18.9999 22.6666Z" fill="#5D5FEF"/>
<path d="M15.9999 24.6666C16.3681 24.6666 16.6666 24.3682 16.6666 24C16.6666 23.6318 16.3681 23.3333 15.9999 23.3333C15.6317 23.3333 15.3333 23.6318 15.3333 24C15.3333 24.3682 15.6317 24.6666 15.9999 24.6666Z" fill="#5D5FEF"/>
<path d="M18.9999 26.6666C19.3681 26.6666 19.6666 26.3682 19.6666 26C19.6666 25.6318 19.3681 25.3333 18.9999 25.3333C18.6317 25.3333 18.3333 25.6318 18.3333 26C18.3333 26.3682 18.6317 26.6666 18.9999 26.6666Z" fill="#5D5FEF"/>
<path d="M15.9999 28.6666C16.3681 28.6666 16.6666 28.3682 16.6666 28C16.6666 27.6318 16.3681 27.3333 15.9999 27.3333C15.6317 27.3333 15.3333 27.6318 15.3333 28C15.3333 28.3682 15.6317 28.6666 15.9999 28.6666Z" fill="#5D5FEF"/>
<path d="M12.9999 26.6666C13.3681 26.6666 13.6666 26.3682 13.6666 26C13.6666 25.6318 13.3681 25.3333 12.9999 25.3333C12.6317 25.3333 12.3333 25.6318 12.3333 26C12.3333 26.3682 12.6317 26.6666 12.9999 26.6666Z" fill="#5D5FEF"/>
</svg>
