<svg width="24" height="24" viewBox="0 0 24 24" fill="none" xmlns="http://www.w3.org/2000/svg">
<path d="M12 1C5.9 1 1 5.9 1 12C1 18.1 5.9 23 12 23C18.1 23 23 18.1 23 12C23 6 18.1 1 12 1ZM14.8 8C15.6 8 16.2 8.6 16.2 9.4C16.2 10.2 15.6 10.8 14.8 10.8C14 10.8 13.4 10.2 13.4 9.4C13.4 8.6 14.1 8 14.8 8ZM9.3 8C10 8 10.6 8.7 10.6 9.4C10.6 10.1 9.9 10.7 9.2 10.7C8.5 10.7 7.9 10 7.9 9.3C7.9 8.5 8.5 7.9 9.3 8ZM14.9 16.5H9.2C8.4 16.5 7.8 15.9 7.8 15.1C7.8 14.3 8.4 13.7 9.2 13.7H14.9C15.7 13.7 16.3 14.3 16.3 15.1C16.3 15.9 15.6 16.5 14.9 16.5Z" fill="#EC8B1A"/>
<path opacity="0.16" d="M10.5999 9.4C10.5999 8.7 10.0999 8 9.2999 8C8.5999 8 7.8999 8.5 7.8999 9.3C7.8999 10 8.39991 10.7 9.19991 10.7C9.89991 10.8 10.4999 10.2 10.5999 9.4Z" fill="#EC8B1A"/>
<path opacity="0.16" d="M14.8 10.7C15.6 10.7 16.2 10.1 16.2 9.3C16.2 8.5 15.6 7.9 14.8 7.9C14 7.9 13.5 8.6 13.5 9.4C13.5 10.2 14.1 10.7 14.8 10.7Z" fill="#EC8B1A"/>
<path opacity="0.08" d="M9.20005 16.5H14.9C15.7 16.5 16.3 15.9 16.3 15.1C16.3 14.3 15.7 13.7 14.9 13.7H9.20005C8.50005 13.7 7.80005 14.3 7.80005 15.1C7.80005 15.9 8.40005 16.5 9.20005 16.5Z" fill="#EC8B1A"/>
</svg>
