<svg width="24" height="24" viewBox="0 0 24 24" fill="none" xmlns="http://www.w3.org/2000/svg">
<path opacity="0.32" d="M8.28553 17.3833C7.88396 15.1778 6.88003 13.3733 5.87609 13.1728L1.86035 13.9748C2.96468 13.8745 3.96861 15.9798 4.47058 18.1854C4.87216 19.7894 4.87216 22.5964 3.76783 22.8972L7.88396 21.9949C8.7875 21.0927 8.68711 19.3884 8.28553 17.3833Z" fill="#CE0395"/>
<path d="M4.47049 18.1855C3.96853 15.9799 2.96459 13.8746 1.86026 14.0752C0.755936 14.2757 0.956723 17.3835 1.15751 18.6867C1.3583 20.0903 2.46263 23.0978 3.66735 22.9976C4.87207 22.8973 4.87207 19.8898 4.47049 18.1855Z" fill="#CE0395"/>
<path opacity="0.32" d="M15.7147 17.3833C16.1163 15.1778 17.1202 13.3733 18.1242 13.1728L22.1399 13.9748C21.0356 13.8745 20.0316 15.9798 19.5297 18.1854C19.1281 19.7894 19.1281 22.5964 20.2324 22.8972L16.1163 21.9949C15.2128 21.0927 15.3131 19.3884 15.7147 17.3833Z" fill="#CE0395"/>
<path d="M19.5295 18.1854C20.0314 15.9799 21.0354 13.7744 22.1397 14.0751C23.244 14.2756 23.0432 17.3834 22.8425 18.6867C22.6417 20.0902 21.5373 23.0978 20.3326 22.9975C19.1279 22.8973 19.1279 19.8897 19.5295 18.1854Z" fill="#CE0395"/>
<path d="M15.7148 17.3835C16.016 15.8797 16.518 14.4762 17.2207 13.7744C15.7148 12.2707 13.5061 10.4661 12.0002 10.4661C10.4943 10.4661 8.28569 12.2707 6.77979 13.7744C7.48254 14.4762 7.98451 15.8797 8.28569 17.3835C8.58687 18.787 8.68726 20.0903 8.38608 20.9926L8.48647 21.0928C10.0928 22.6969 10.7955 22.7971 12.0002 22.7971C13.205 22.7971 13.9077 22.6969 15.6144 21.0928C15.3132 20.0903 15.4136 18.8873 15.7148 17.3835Z" fill="#CE0395"/>
<path opacity="0.72" d="M22.8422 5.85448C22.7418 4.04994 21.3363 2.64642 19.3284 1.94465C16.5174 0.942133 13.0036 0.942133 11.9997 1.04238C11.0961 1.04238 7.48195 0.942133 4.67094 1.94465C2.66307 2.64642 1.25756 4.15019 1.15716 5.85448C0.956377 8.86203 1.85992 11.2681 3.36582 13.7744L5.07251 13.4736L5.87566 13.2731C6.17684 13.2731 6.47802 13.4736 6.7792 13.8746C8.2851 12.3708 10.4938 10.5663 11.9997 10.5663C13.5056 10.5663 15.7142 12.3708 17.2201 13.8746C17.5213 13.5739 17.8225 13.3734 18.1237 13.2731L18.9268 13.4736L20.6335 13.7744C22.1394 11.2681 23.0429 8.86203 22.8422 5.85448ZM10.5942 9.36329C10.3934 9.7643 9.8914 9.9648 9.48982 9.9648C9.18864 9.9648 8.98785 9.86455 8.68667 9.66405L7.38156 8.76178C6.7792 8.36077 6.57841 7.45851 6.97999 6.857C7.38156 6.25548 8.2851 6.05498 8.88746 6.45599L10.293 7.35825C10.8953 7.85951 11.0961 8.66153 10.5942 9.36329ZM16.6178 8.76178L15.2122 9.66405C15.0115 9.86455 14.8107 9.9648 14.5095 9.9648C14.1079 9.9648 13.606 9.7643 13.4052 9.36329C13.0036 8.76178 13.104 7.85951 13.8067 7.45851L15.2122 6.55624C15.8146 6.15523 16.7182 6.25548 17.1197 6.95725C17.5213 7.65901 17.2201 8.36077 16.6178 8.76178Z" fill="#CE0395"/>
<path opacity="0.88" d="M5.97551 3.53712C8.28456 2.73874 11.196 2.73874 11.9991 2.73874C12.8023 2.73874 15.7137 2.63895 18.0227 3.53712C19.629 4.1359 20.8337 5.33347 20.9341 6.73063C21.1349 9.32536 20.3318 11.3213 19.0267 13.417L20.7334 13.7164C22.2393 11.2215 23.1428 8.82637 22.942 5.83246C22.8416 4.03611 21.4361 2.63895 19.4282 1.94037C16.6172 0.942396 13.1034 0.942396 12.0995 1.04219C11.196 1.04219 7.58181 0.942396 4.77079 1.94037C2.76292 2.63895 1.35741 4.1359 1.25702 5.83246C1.05623 8.82637 1.95977 11.2215 3.46567 13.7164L5.17236 13.417C3.86725 11.2215 3.0641 9.32536 3.26489 6.73063C3.26489 5.23367 4.36922 4.1359 5.97551 3.53712Z" fill="#CE0395"/>
</svg>
