<svg width="32" height="32" viewBox="0 0 32 32" fill="none" xmlns="http://www.w3.org/2000/svg">
<path d="M24.1854 14.0623C24.5004 13.4236 24.6667 12.722 24.6667 12C24.6667 9.42665 22.5734 7.33331 20.0001 7.33331C18.4664 7.33331 17.0351 8.09365 16.1681 9.34031C16.1121 9.33865 16.0567 9.33331 16.0004 9.33331C13.4457 9.33331 11.2607 11.004 10.5634 13.3946C10.3711 13.3596 10.1694 13.3333 10.0004 13.3333C7.97841 13.3333 6.33374 14.9783 6.33374 17C6.33374 19.0216 7.97841 20.6666 10.0004 20.6666H22.0004C24.0221 20.6666 25.6671 19.0216 25.6671 17C25.6671 15.7973 25.0824 14.7313 24.1854 14.0623ZM20.0001 8.66665C21.8381 8.66665 23.3334 10.162 23.3334 12C23.3334 12.516 23.2134 13.0166 22.9881 13.4723C22.6731 13.384 22.3427 13.3333 22.0004 13.3333C21.8311 13.3333 21.6297 13.3596 21.4371 13.3946C20.9011 11.5576 19.4857 10.1496 17.7004 9.59431C18.3131 9.00998 19.1324 8.66665 20.0001 8.66665ZM22.0004 19.3333H10.0004C8.71407 19.3333 7.66707 18.2863 7.66707 17C7.66707 15.7136 8.71407 14.6666 10.0004 14.6666C10.0927 14.6666 10.2414 14.6893 10.3981 14.7206V15.3333C10.3981 15.7013 10.6967 16 11.0647 16C11.4327 16 11.7314 15.7013 11.7314 15.3333V14.2603C12.0891 12.176 13.8767 10.6666 16.0004 10.6666C18.1244 10.6666 19.9124 12.1766 20.2694 14.262V15.3333C20.2694 15.7013 20.5681 16 20.9361 16C21.3041 16 21.6027 15.7013 21.6027 15.3333V14.721C21.7597 14.6896 21.9091 14.6666 22.0004 14.6666C23.2867 14.6666 24.3337 15.7136 24.3337 17C24.3337 18.2863 23.2867 19.3333 22.0004 19.3333Z" fill="#363B9D"/>
<path d="M20.0001 5.99998C20.3681 5.99998 20.6667 5.70131 20.6667 5.33331V3.99998C20.6667 3.63198 20.3681 3.33331 20.0001 3.33331C19.6317 3.33331 19.3334 3.63198 19.3334 3.99998V5.33331C19.3334 5.70131 19.6317 5.99998 20.0001 5.99998Z" fill="#363B9D"/>
<path d="M28.0001 11.3333H26.6667C26.2984 11.3333 26.0001 11.632 26.0001 12C26.0001 12.368 26.2984 12.6666 26.6667 12.6666H28.0001C28.3681 12.6666 28.6667 12.368 28.6667 12C28.6667 11.632 28.3681 11.3333 28.0001 11.3333Z" fill="#363B9D"/>
<path d="M24.7144 7.95227C24.8851 7.95227 25.0554 7.88727 25.1857 7.75693L26.1284 6.81427C26.3887 6.55393 26.3887 6.13193 26.1284 5.8716C25.8681 5.61126 25.4461 5.61126 25.1857 5.8716L24.2431 6.81427C23.9827 7.0746 23.9827 7.4966 24.2431 7.75693C24.3731 7.88727 24.5437 7.95227 24.7144 7.95227Z" fill="#363B9D"/>
<path d="M14.8143 7.75693C14.9447 7.88727 15.115 7.95227 15.2857 7.95227C15.4563 7.95227 15.6267 7.88727 15.757 7.75693C16.0173 7.4966 16.0173 7.0746 15.757 6.81427L14.8143 5.8716C14.554 5.61126 14.132 5.61126 13.8717 5.8716C13.6113 6.13193 13.6113 6.55393 13.8717 6.81427L14.8143 7.75693Z" fill="#363B9D"/>
</svg>
