<svg width="22" height="21" viewBox="0 0 22 21" fill="none" xmlns="http://www.w3.org/2000/svg">
<path d="M0.345191 5.60054C-0.115064 6.11003 -0.115064 6.93595 0.345191 7.44544C0.805445 7.95494 1.55168 7.95494 2.01194 7.44544L4.71427 4.45422L4.71427 19.5692C4.71427 20.2897 5.24194 20.8738 5.89284 20.8738C6.54373 20.8738 7.0714 20.2897 7.0714 19.5692L7.0714 4.45422L9.77373 7.44544C10.234 7.95494 10.9802 7.95494 11.4404 7.44544C11.9007 6.93595 11.9007 6.11003 11.4404 5.60054L6.72621 0.382066C6.26595 -0.127429 5.51972 -0.127429 5.05946 0.382066L0.345191 5.60054Z" fill="#372490"/>
<path d="M12.2263 13.4282C11.766 12.9187 11.0199 12.9187 10.5596 13.4282C10.0993 13.9377 10.0993 14.7637 10.5596 15.2732L15.2739 20.4917C15.4948 20.7363 15.7947 20.8738 16.1072 20.8738C16.4198 20.8738 16.7196 20.7363 16.9405 20.4917L21.6548 15.2732C22.1151 14.7637 22.1151 13.9377 21.6548 13.4282C21.1945 12.9187 20.4484 12.9187 19.9882 13.4282L17.2858 16.4195V1.30452C17.2858 0.584021 16.7581 -9.95344e-05 16.1072 -9.95344e-05C15.4563 -9.95344e-05 14.9286 0.584021 14.9286 1.30452L14.9286 16.4195L12.2263 13.4282Z" fill="#372490"/>
</svg>
