<svg width="32" height="32" viewBox="0 0 32 32" fill="none" xmlns="http://www.w3.org/2000/svg">
<path d="M15.9999 26C15.6316 26 15.3333 26.2986 15.3333 26.6666V28C15.3333 28.368 15.6316 28.6666 15.9999 28.6666C16.3679 28.6666 16.6666 28.368 16.6666 28V26.6666C16.6666 26.2986 16.3679 26 15.9999 26ZM12.9999 24C12.6316 24 12.3333 24.2986 12.3333 24.6666V26C12.3333 26.368 12.6316 26.6666 12.9999 26.6666C13.3679 26.6666 13.6666 26.368 13.6666 26V24.6666C13.6666 24.2986 13.3679 24 12.9999 24ZM18.9999 24C18.6316 24 18.3333 24.2986 18.3333 24.6666V26C18.3333 26.368 18.6316 26.6666 18.9999 26.6666C19.3679 26.6666 19.6666 26.368 19.6666 26V24.6666C19.6666 24.2986 19.3679 24 18.9999 24ZM21.9999 13.3333C21.8306 13.3333 21.6293 13.3596 21.4369 13.3946C20.7393 11.004 18.5543 9.33331 15.9999 9.33331C13.4453 9.33331 11.2603 11.004 10.5626 13.3946C10.3706 13.3596 10.1689 13.3333 9.99992 13.3333C7.97825 13.3333 6.33325 14.9783 6.33325 17C6.33325 19.0216 7.97825 20.6666 9.99992 20.6666H12.3333V22C12.3333 22.368 12.6316 22.6666 12.9999 22.6666C13.3679 22.6666 13.6666 22.368 13.6666 22V20.6666H18.3333V22C18.3333 22.368 18.6316 22.6666 18.9999 22.6666C19.3679 22.6666 19.6666 22.368 19.6666 22V20.6666H21.9999C24.0216 20.6666 25.6666 19.0216 25.6666 17C25.6666 14.9783 24.0216 13.3333 21.9999 13.3333ZM21.9999 19.3333H9.99992C8.71359 19.3333 7.66659 18.2863 7.66659 17C7.66659 15.7136 8.71359 14.6666 9.99992 14.6666C10.0923 14.6666 10.2409 14.6893 10.3976 14.7206V15.3333C10.3976 15.7013 10.6959 16 11.0643 16C11.4326 16 11.7309 15.7013 11.7309 15.3333V14.2603C12.0886 12.176 13.8763 10.6666 15.9999 10.6666C18.1233 10.6666 19.9109 12.176 20.2689 14.2606V15.3333C20.2689 15.7013 20.5676 16 20.9356 16C21.3036 16 21.6023 15.7013 21.6023 15.3333V14.721C21.7589 14.6896 21.9086 14.6666 21.9999 14.6666C23.2863 14.6666 24.3333 15.7136 24.3333 17C24.3333 18.2863 23.2863 19.3333 21.9999 19.3333ZM15.9999 22C15.6316 22 15.3333 22.2986 15.3333 22.6666V24C15.3333 24.368 15.6316 24.6666 15.9999 24.6666C16.3679 24.6666 16.6666 24.368 16.6666 24V22.6666C16.6666 22.2986 16.3679 22 15.9999 22Z" fill="#363B9D"/>
</svg>
